{
	"asset":{
		"generator":"Khronos glTF Blender I/O v4.5.51",
		"version":"2.0"
	},
	"scene":0,
	"scenes":[
		{
			"name":"Scene",
			"nodes":[
				0,
				1,
				2,
				3,
				4
			]
		}
	],
	"nodes":[
		{
			"mesh":0,
			"name":"Lingya-head"
		},
		{
			"mesh":1,
			"name":"Lingya-eyes_viewport"
		},
		{
			"mesh":2,
			"name":"Lingya-eyebrows"
		},
		{
			"mesh":3,
			"name":"Lingya-eyelashes"
		},
		{
			"mesh":4,
			"name":"Lingya-eye_dots"
		}
	],
	"materials":[
		{
			"doubleSided":true,
			"name":"Lingya_face_skin",
			"pbrMetallicRoughness":{
				"metallicFactor":0,
				"roughnessFactor":0.800000011920929
			}
		},
		{
			"doubleSided":true,
			"name":"Lingya_eye_white",
			"pbrMetallicRoughness":{
				"baseColorFactor":[
					0.9300000071525574,
					0.8999999761581421,
					0.8299999833106995,
					1
				],
				"metallicFactor":0,
				"roughnessFactor":0.550000011920929
			}
		},
		{
			"doubleSided":true,
			"name":"Lingya_eye_iris",
			"pbrMetallicRoughness":{
				"baseColorFactor":[
					0.25,
					0.125,
					0.04500000178813934,
					1
				],
				"metallicFactor":0,
				"roughnessFactor":0.4000000059604645
			}
		},
		{
			"doubleSided":true,
			"name":"Lingya_eye_pupil",
			"pbrMetallicRoughness":{
				"baseColorFactor":[
					0.008999999612569809,
					0.006000000052154064,
					0.004000000189989805,
					1
				],
				"metallicFactor":0,
				"roughnessFactor":0.4000000059604645
			}
		},
		{
			"doubleSided":true,
			"name":"Lingya_face_brow",
			"pbrMetallicRoughness":{
				"baseColorFactor":[
					0.20000000298023224,
					0.0949999988079071,
					0.04500000178813934,
					1
				],
				"metallicFactor":0,
				"roughnessFactor":0.800000011920929
			}
		},
		{
			"doubleSided":true,
			"name":"Lingya_face_lash",
			"pbrMetallicRoughness":{
				"baseColorFactor":[
					0.05000000074505806,
					0.02500000037252903,
					0.013000000268220901,
					1
				],
				"metallicFactor":0,
				"roughnessFactor":0.800000011920929
			}
		},
		{
			"doubleSided":true,
			"name":"Lingya_eye_glint",
			"pbrMetallicRoughness":{
				"metallicFactor":0,
				"roughnessFactor":0.6000000238418579
			}
		}
	],
	"meshes":[
		{
			"extras":{
				"targetNames":[
					"Blink"
				]
			},
			"name":"GEO-rain-head.001",
			"primitives":[
				{
					"attributes":{
						"POSITION":0,
						"NORMAL":1,
						"COLOR_0":2,
						"COLOR_1":3
					},
					"indices":4,
					"material":0,
					"targets":[
						{
							"POSITION":5,
							"NORMAL":6
						}
					]
				}
			],
			"weights":[
				0
			]
		},
		{
			"name":"GEO-rain-eyes_viewport.001",
			"primitives":[
				{
					"attributes":{
						"POSITION":7,
						"NORMAL":8,
						"TEXCOORD_0":9,
						"COLOR_0":10,
						"COLOR_1":11,
						"COLOR_2":12
					},
					"indices":13,
					"material":1
				},
				{
					"attributes":{
						"POSITION":14,
						"NORMAL":15,
						"TEXCOORD_0":16,
						"COLOR_0":17,
						"COLOR_1":18,
						"COLOR_2":19
					},
					"indices":20,
					"material":2
				},
				{
					"attributes":{
						"POSITION":21,
						"NORMAL":22,
						"TEXCOORD_0":23,
						"COLOR_0":24,
						"COLOR_1":25,
						"COLOR_2":26
					},
					"indices":27,
					"material":3
				}
			]
		},
		{
			"name":"GEO-rain-eyebrows.001",
			"primitives":[
				{
					"attributes":{
						"POSITION":28,
						"NORMAL":29,
						"TEXCOORD_0":30,
						"COLOR_0":31,
						"COLOR_1":32
					},
					"indices":33,
					"material":4
				}
			]
		},
		{
			"extras":{
				"targetNames":[
					"Blink"
				]
			},
			"name":"GEO-rain-eyelashes.001",
			"primitives":[
				{
					"attributes":{
						"POSITION":34,
						"NORMAL":35,
						"TEXCOORD_0":36,
						"COLOR_0":37,
						"COLOR_1":38
					},
					"indices":39,
					"material":5,
					"targets":[
						{
							"POSITION":40,
							"NORMAL":41
						}
					]
				}
			],
			"weights":[
				0
			]
		},
		{
			"name":"GEO-rain-eye_dots.001",
			"primitives":[
				{
					"attributes":{
						"POSITION":42,
						"NORMAL":43,
						"TEXCOORD_0":44
					},
					"indices":45,
					"material":6
				}
			]
		}
	],
	"accessors":[
		{
			"bufferView":0,
			"componentType":5126,
			"count":25431,
			"max":[
				0.09542573988437653,
				1.7344640493392944,
				0.09377458691596985
			],
			"min":[
				-0.09542571008205414,
				1.42301607131958,
				-0.0826856717467308
			],
			"type":"VEC3"
		},
		{
			"bufferView":1,
			"componentType":5126,
			"count":25431,
			"type":"VEC3"
		},
		{
			"bufferView":2,
			"componentType":5126,
			"count":25431,
			"type":"VEC3"
		},
		{
			"bufferView":3,
			"componentType":5123,
			"count":25431,
			"normalized":true,
			"type":"VEC4"
		},
		{
			"bufferView":4,
			"componentType":5123,
			"count":151620,
			"type":"SCALAR"
		},
		{
			"componentType":5126,
			"count":25431,
			"max":[
				0.005702659487724304,
				0.006783604621887207,
				0.006331242620944977
			],
			"min":[
				-0.0057037752121686935,
				-0.023652315139770508,
				-0.0020939409732818604
			],
			"sparse":{
				"count":5817,
				"indices":{
					"bufferView":5,
					"componentType":5123
				},
				"values":{
					"bufferView":6
				}
			},
			"type":"VEC3"
		},
		{
			"bufferView":7,
			"componentType":5126,
			"count":25431,
			"type":"VEC3"
		},
		{
			"bufferView":8,
			"componentType":5126,
			"count":1026,
			"max":[
				0.059547506272792816,
				1.6527886390686035,
				0.0682603046298027
			],
			"min":[
				-0.05954750254750252,
				1.5966726541519165,
				0.01631895825266838
			],
			"type":"VEC3"
		},
		{
			"bufferView":9,
			"componentType":5126,
			"count":1026,
			"type":"VEC3"
		},
		{
			"bufferView":10,
			"componentType":5126,
			"count":1026,
			"type":"VEC2"
		},
		{
			"bufferView":11,
			"componentType":5121,
			"count":1026,
			"normalized":true,
			"type":"VEC4"
		},
		{
			"bufferView":12,
			"componentType":5123,
			"count":1026,
			"normalized":true,
			"type":"VEC4"
		},
		{
			"bufferView":13,
			"componentType":5123,
			"count":1026,
			"normalized":true,
			"type":"VEC4"
		},
		{
			"bufferView":14,
			"componentType":5123,
			"count":5568,
			"type":"SCALAR"
		},
		{
			"bufferView":15,
			"componentType":5126,
			"count":320,
			"max":[
				0.043000899255275726,
				1.6355329751968384,
				0.07034675776958466
			],
			"min":[
				-0.043000899255275726,
				1.6139284372329712,
				0.06826026737689972
			],
			"type":"VEC3"
		},
		{
			"bufferView":16,
			"componentType":5126,
			"count":320,
			"type":"VEC3"
		},
		{
			"bufferView":17,
			"componentType":5126,
			"count":320,
			"type":"VEC2"
		},
		{
			"bufferView":18,
			"componentType":5121,
			"count":320,
			"normalized":true,
			"type":"VEC4"
		},
		{
			"bufferView":19,
			"componentType":5123,
			"count":320,
			"normalized":true,
			"type":"VEC4"
		},
		{
			"bufferView":20,
			"componentType":5123,
			"count":320,
			"normalized":true,
			"type":"VEC4"
		},
		{
			"bufferView":21,
			"componentType":5123,
			"count":1536,
			"type":"SCALAR"
		},
		{
			"bufferView":22,
			"componentType":5126,
			"count":256,
			"max":[
				0.038533296436071396,
				1.6308737993240356,
				0.07121549546718597
			],
			"min":[
				-0.038533296436071396,
				1.6185873746871948,
				0.07034672796726227
			],
			"type":"VEC3"
		},
		{
			"bufferView":23,
			"componentType":5126,
			"count":256,
			"type":"VEC3"
		},
		{
			"bufferView":24,
			"componentType":5126,
			"count":256,
			"type":"VEC2"
		},
		{
			"bufferView":25,
			"componentType":5121,
			"count":256,
			"normalized":true,
			"type":"VEC4"
		},
		{
			"bufferView":26,
			"componentType":5123,
			"count":256,
			"normalized":true,
			"type":"VEC4"
		},
		{
			"bufferView":27,
			"componentType":5123,
			"count":256,
			"normalized":true,
			"type":"VEC4"
		},
		{
			"bufferView":28,
			"componentType":5123,
			"count":960,
			"type":"SCALAR"
		},
		{
			"bufferView":29,
			"componentType":5126,
			"count":1403,
			"max":[
				0.06325891613960266,
				1.6648850440979004,
				0.08869735896587372
			],
			"min":[
				-0.06325887143611908,
				1.6485755443572998,
				0.056340042501688004
			],
			"type":"VEC3"
		},
		{
			"bufferView":30,
			"componentType":5126,
			"count":1403,
			"type":"VEC3"
		},
		{
			"bufferView":31,
			"componentType":5126,
			"count":1403,
			"type":"VEC2"
		},
		{
			"bufferView":32,
			"componentType":5121,
			"count":1403,
			"normalized":true,
			"type":"VEC4"
		},
		{
			"bufferView":33,
			"componentType":5123,
			"count":1403,
			"normalized":true,
			"type":"VEC4"
		},
		{
			"bufferView":34,
			"componentType":5123,
			"count":6240,
			"type":"SCALAR"
		},
		{
			"bufferView":35,
			"componentType":5126,
			"count":1236,
			"max":[
				0.061782293021678925,
				1.6369917392730713,
				0.07269451022148132
			],
			"min":[
				-0.061782367527484894,
				1.6223652362823486,
				0.05813991650938988
			],
			"type":"VEC3"
		},
		{
			"bufferView":36,
			"componentType":5126,
			"count":1236,
			"type":"VEC3"
		},
		{
			"bufferView":37,
			"componentType":5126,
			"count":1236,
			"type":"VEC2"
		},
		{
			"bufferView":38,
			"componentType":5121,
			"count":1236,
			"normalized":true,
			"type":"VEC4"
		},
		{
			"bufferView":39,
			"componentType":5123,
			"count":1236,
			"normalized":true,
			"type":"VEC4"
		},
		{
			"bufferView":40,
			"componentType":5123,
			"count":5664,
			"type":"SCALAR"
		},
		{
			"bufferView":41,
			"componentType":5126,
			"count":1236,
			"max":[
				0.004444079473614693,
				0.0016976594924926758,
				0.0019080042839050293
			],
			"min":[
				-0.004444260150194168,
				-0.02621626853942871,
				-0.003508545458316803
			],
			"type":"VEC3"
		},
		{
			"bufferView":42,
			"componentType":5126,
			"count":1236,
			"type":"VEC3"
		},
		{
			"bufferView":43,
			"componentType":5126,
			"count":156,
			"max":[
				0.032199401408433914,
				1.6290313005447388,
				0.07197366654872894
			],
			"min":[
				-0.036199457943439484,
				1.6268548965454102,
				0.07197358459234238
			],
			"type":"VEC3"
		},
		{
			"bufferView":44,
			"componentType":5126,
			"count":156,
			"type":"VEC3"
		},
		{
			"bufferView":45,
			"componentType":5126,
			"count":156,
			"type":"VEC2"
		},
		{
			"bufferView":46,
			"componentType":5123,
			"count":384,
			"type":"SCALAR"
		}
	],
	"bufferViews":[
		{
			"buffer":0,
			"byteLength":305172,
			"byteOffset":0,
			"target":34962
		},
		{
			"buffer":0,
			"byteLength":305172,
			"byteOffset":305172,
			"target":34962
		},
		{
			"buffer":0,
			"byteLength":305172,
			"byteOffset":610344,
			"target":34962
		},
		{
			"buffer":0,
			"byteLength":203448,
			"byteOffset":915516,
			"target":34962
		},
		{
			"buffer":0,
			"byteLength":303240,
			"byteOffset":1118964,
			"target":34963
		},
		{
			"buffer":0,
			"byteLength":11634,
			"byteOffset":1422204
		},
		{
			"buffer":0,
			"byteLength":69804,
			"byteOffset":1433840
		},
		{
			"buffer":0,
			"byteLength":305172,
			"byteOffset":1503644,
			"target":34962
		},
		{
			"buffer":0,
			"byteLength":12312,
			"byteOffset":1808816,
			"target":34962
		},
		{
			"buffer":0,
			"byteLength":12312,
			"byteOffset":1821128,
			"target":34962
		},
		{
			"buffer":0,
			"byteLength":8208,
			"byteOffset":1833440,
			"target":34962
		},
		{
			"buffer":0,
			"byteLength":4104,
			"byteOffset":1841648,
			"target":34962
		},
		{
			"buffer":0,
			"byteLength":8208,
			"byteOffset":1845752,
			"target":34962
		},
		{
			"buffer":0,
			"byteLength":8208,
			"byteOffset":1853960,
			"target":34962
		},
		{
			"buffer":0,
			"byteLength":11136,
			"byteOffset":1862168,
			"target":34963
		},
		{
			"buffer":0,
			"byteLength":3840,
			"byteOffset":1873304,
			"target":34962
		},
		{
			"buffer":0,
			"byteLength":3840,
			"byteOffset":1877144,
			"target":34962
		},
		{
			"buffer":0,
			"byteLength":2560,
			"byteOffset":1880984,
			"target":34962
		},
		{
			"buffer":0,
			"byteLength":1280,
			"byteOffset":1883544,
			"target":34962
		},
		{
			"buffer":0,
			"byteLength":2560,
			"byteOffset":1884824,
			"target":34962
		},
		{
			"buffer":0,
			"byteLength":2560,
			"byteOffset":1887384,
			"target":34962
		},
		{
			"buffer":0,
			"byteLength":3072,
			"byteOffset":1889944,
			"target":34963
		},
		{
			"buffer":0,
			"byteLength":3072,
			"byteOffset":1893016,
			"target":34962
		},
		{
			"buffer":0,
			"byteLength":3072,
			"byteOffset":1896088,
			"target":34962
		},
		{
			"buffer":0,
			"byteLength":2048,
			"byteOffset":1899160,
			"target":34962
		},
		{
			"buffer":0,
			"byteLength":1024,
			"byteOffset":1901208,
			"target":34962
		},
		{
			"buffer":0,
			"byteLength":2048,
			"byteOffset":1902232,
			"target":34962
		},
		{
			"buffer":0,
			"byteLength":2048,
			"byteOffset":1904280,
			"target":34962
		},
		{
			"buffer":0,
			"byteLength":1920,
			"byteOffset":1906328,
			"target":34963
		},
		{
			"buffer":0,
			"byteLength":16836,
			"byteOffset":1908248,
			"target":34962
		},
		{
			"buffer":0,
			"byteLength":16836,
			"byteOffset":1925084,
			"target":34962
		},
		{
			"buffer":0,
			"byteLength":11224,
			"byteOffset":1941920,
			"target":34962
		},
		{
			"buffer":0,
			"byteLength":5612,
			"byteOffset":1953144,
			"target":34962
		},
		{
			"buffer":0,
			"byteLength":11224,
			"byteOffset":1958756,
			"target":34962
		},
		{
			"buffer":0,
			"byteLength":12480,
			"byteOffset":1969980,
			"target":34963
		},
		{
			"buffer":0,
			"byteLength":14832,
			"byteOffset":1982460,
			"target":34962
		},
		{
			"buffer":0,
			"byteLength":14832,
			"byteOffset":1997292,
			"target":34962
		},
		{
			"buffer":0,
			"byteLength":9888,
			"byteOffset":2012124,
			"target":34962
		},
		{
			"buffer":0,
			"byteLength":4944,
			"byteOffset":2022012,
			"target":34962
		},
		{
			"buffer":0,
			"byteLength":9888,
			"byteOffset":2026956,
			"target":34962
		},
		{
			"buffer":0,
			"byteLength":11328,
			"byteOffset":2036844,
			"target":34963
		},
		{
			"buffer":0,
			"byteLength":14832,
			"byteOffset":2048172,
			"target":34962
		},
		{
			"buffer":0,
			"byteLength":14832,
			"byteOffset":2063004,
			"target":34962
		},
		{
			"buffer":0,
			"byteLength":1872,
			"byteOffset":2077836,
			"target":34962
		},
		{
			"buffer":0,
			"byteLength":1872,
			"byteOffset":2079708,
			"target":34962
		},
		{
			"buffer":0,
			"byteLength":1248,
			"byteOffset":2081580,
			"target":34962
		},
		{
			"buffer":0,
			"byteLength":768,
			"byteOffset":2082828,
			"target":34963
		}
	],
	"buffers":[
		{
			"byteLength":2083596,
			"uri":"lingya-face.bin"
		}
	]
}
